<?xml version="1.0" encoding="utf-8"?>
<!-- Generator: Adobe Illustrator 15.0.0, SVG Export Plug-In . SVG Version: 6.00 Build 0)  -->
<!DOCTYPE svg PUBLIC "-//W3C//DTD SVG 1.1//EN" "http://www.w3.org/Graphics/SVG/1.1/DTD/svg11.dtd" [
	<!ENTITY ns_extend "http://ns.adobe.com/Extensibility/1.0/">
	<!ENTITY ns_ai "http://ns.adobe.com/AdobeIllustrator/10.0/">
	<!ENTITY ns_graphs "http://ns.adobe.com/Graphs/1.0/">
	<!ENTITY ns_vars "http://ns.adobe.com/Variables/1.0/">
	<!ENTITY ns_imrep "http://ns.adobe.com/ImageReplacement/1.0/">
	<!ENTITY ns_sfw "http://ns.adobe.com/SaveForWeb/1.0/">
	<!ENTITY ns_custom "http://ns.adobe.com/GenericCustomNamespace/1.0/">
	<!ENTITY ns_adobe_xpath "http://ns.adobe.com/XPath/1.0/">
]>
<svg version="1.1" id="Layer_1" xmlns:x="&ns_extend;" xmlns:i="&ns_ai;" xmlns:graph="&ns_graphs;"
	 xmlns="http://www.w3.org/2000/svg" xmlns:xlink="http://www.w3.org/1999/xlink" x="0px" y="0px" width="32px" height="32px"
	 viewBox="0 0 32 32" enable-background="new 0 0 32 32" xml:space="preserve">
<metadata>
	<sfw  xmlns="&ns_sfw;">
		<slices></slices>
		<sliceSourceBounds  height="21.908" width="23.295" y="385.546" x="293.853" bottomLeftOrigin="true"></sliceSourceBounds>
	</sfw>
</metadata>
<pattern  x="-289.5" y="412.5" width="72" height="72" patternUnits="userSpaceOnUse" id="SVGID_1_" viewBox="14.75 -72 72 72" overflow="visible">
	<g>
		<polygon fill="none" points="14.75,0 86.75,0 86.75,-72 14.75,-72 		"/>
		<g>
			<polygon fill="none" points="14.75,-72 14.75,0 86.75,0 86.75,-72 			"/>
			<line fill="none" stroke="#231F20" stroke-width="2" stroke-dasharray="2,1" x1="15.25" y1="-70.5" x2="87.25" y2="-70.5"/>
			<line fill="none" stroke="#231F20" stroke-width="2" stroke-dasharray="2,1" x1="15.25" y1="-67.5" x2="87.25" y2="-67.5"/>
			<line fill="none" stroke="#231F20" stroke-width="2" stroke-dasharray="2,1" x1="15.25" y1="-64.5" x2="87.25" y2="-64.5"/>
			<line fill="none" stroke="#231F20" stroke-width="2" stroke-dasharray="2,1" x1="15.25" y1="-61.5" x2="87.25" y2="-61.5"/>
			<line fill="none" stroke="#231F20" stroke-width="2" stroke-dasharray="2,1" x1="15.25" y1="-58.5" x2="87.25" y2="-58.5"/>
			<line fill="none" stroke="#231F20" stroke-width="2" stroke-dasharray="2,1" x1="15.25" y1="-55.5" x2="87.25" y2="-55.5"/>
			<line fill="none" stroke="#231F20" stroke-width="2" stroke-dasharray="2,1" x1="15.25" y1="-52.5" x2="87.25" y2="-52.5"/>
			<line fill="none" stroke="#231F20" stroke-width="2" stroke-dasharray="2,1" x1="15.25" y1="-49.5" x2="87.25" y2="-49.5"/>
			<line fill="none" stroke="#231F20" stroke-width="2" stroke-dasharray="2,1" x1="15.25" y1="-46.5" x2="87.25" y2="-46.5"/>
			<line fill="none" stroke="#231F20" stroke-width="2" stroke-dasharray="2,1" x1="15.25" y1="-43.5" x2="87.25" y2="-43.5"/>
			<line fill="none" stroke="#231F20" stroke-width="2" stroke-dasharray="2,1" x1="15.25" y1="-40.5" x2="87.25" y2="-40.5"/>
			<line fill="none" stroke="#231F20" stroke-width="2" stroke-dasharray="2,1" x1="15.25" y1="-37.5" x2="87.25" y2="-37.5"/>
			<line fill="none" stroke="#231F20" stroke-width="2" stroke-dasharray="2,1" x1="15.25" y1="-34.5" x2="87.25" y2="-34.5"/>
			<line fill="none" stroke="#231F20" stroke-width="2" stroke-dasharray="2,1" x1="15.25" y1="-31.5" x2="87.25" y2="-31.5"/>
			<line fill="none" stroke="#231F20" stroke-width="2" stroke-dasharray="2,1" x1="15.25" y1="-28.5" x2="87.25" y2="-28.5"/>
			<line fill="none" stroke="#231F20" stroke-width="2" stroke-dasharray="2,1" x1="15.25" y1="-25.5" x2="87.25" y2="-25.5"/>
			<line fill="none" stroke="#231F20" stroke-width="2" stroke-dasharray="2,1" x1="15.25" y1="-22.5" x2="87.25" y2="-22.5"/>
			<line fill="none" stroke="#231F20" stroke-width="2" stroke-dasharray="2,1" x1="15.25" y1="-19.5" x2="87.25" y2="-19.5"/>
			<line fill="none" stroke="#231F20" stroke-width="2" stroke-dasharray="2,1" x1="15.25" y1="-16.5" x2="87.25" y2="-16.5"/>
			<line fill="none" stroke="#231F20" stroke-width="2" stroke-dasharray="2,1" x1="15.25" y1="-13.5" x2="87.25" y2="-13.5"/>
			<line fill="none" stroke="#231F20" stroke-width="2" stroke-dasharray="2,1" x1="15.25" y1="-10.5" x2="87.25" y2="-10.5"/>
			<line fill="none" stroke="#231F20" stroke-width="2" stroke-dasharray="2,1" x1="15.25" y1="-7.5" x2="87.25" y2="-7.5"/>
			<line fill="none" stroke="#231F20" stroke-width="2" stroke-dasharray="2,1" x1="15.25" y1="-4.5" x2="87.25" y2="-4.5"/>
			<line fill="none" stroke="#231F20" stroke-width="2" stroke-dasharray="2,1" x1="15.25" y1="-1.5" x2="87.25" y2="-1.5"/>
			<line fill="none" stroke="#231F20" stroke-width="2" stroke-dasharray="2,1" x1="2" y1="-4.5" x2="0" y2="-4.5"/>
		</g>
	</g>
</pattern>
<path fill="#8C8E91" d="M18.136,21.484c-1.468-0.926-3.137-0.709-4.682-1.506c-0.021-0.195-0.058-0.535-0.091-0.859
	c1.899-0.775,2.982-3.154,2.417-5.477c-0.17-0.697-1.314-2.842-3.199-2.646c-1.385,0.143-3.332,0.549-3.812,2.169
	c-0.679,1.929,0.304,5.198,2.258,6.021c-0.035,0.279-0.076,0.586-0.098,0.791c-1.545,0.797-3.216,0.58-4.682,1.506
	c-1.558,0.985-1.563,2.359-1.894,4.019h15.679C19.699,23.842,19.694,22.468,18.136,21.484z"/>
<g>
	<path fill="#8C8E91" d="M25.374,22.133c-1.76-1.113-3.766-0.852-5.618-1.809c-0.024-0.232-0.069-0.641-0.108-1.031
		c2.28-0.932,3.579-3.784,2.9-6.57c-0.204-0.837-1.577-3.411-3.841-3.176c-1.662,0.172-3.998,0.658-4.575,2.602
		c-0.812,2.316,0.365,6.239,2.711,7.228c-0.043,0.335-0.092,0.7-0.117,0.947c-1.854,0.957-3.859,0.695-5.618,1.81
		c-1.87,1.182-1.877,2.829-2.273,4.82h18.812C27.251,24.962,27.245,23.315,25.374,22.133z"/>
</g>
<pattern  id="SVGID_2_" xlink:href="#SVGID_1_" patternTransform="matrix(1.1088 0 0 -1.1088 832.6846 -18999.207)">
</pattern>
<rect x="10.448" y="5.046" fill="url(#SVGID_2_)" width="15.586" height="16.588"/>
</svg>
