<?xml version="1.0" encoding="utf-8"?>
<!-- Generator: Adobe Illustrator 15.0.0, SVG Export Plug-In . SVG Version: 6.00 Build 0)  -->
<!DOCTYPE svg PUBLIC "-//W3C//DTD SVG 1.1//EN" "http://www.w3.org/Graphics/SVG/1.1/DTD/svg11.dtd" [
	<!ENTITY ns_extend "http://ns.adobe.com/Extensibility/1.0/">
	<!ENTITY ns_ai "http://ns.adobe.com/AdobeIllustrator/10.0/">
	<!ENTITY ns_graphs "http://ns.adobe.com/Graphs/1.0/">
	<!ENTITY ns_vars "http://ns.adobe.com/Variables/1.0/">
	<!ENTITY ns_imrep "http://ns.adobe.com/ImageReplacement/1.0/">
	<!ENTITY ns_sfw "http://ns.adobe.com/SaveForWeb/1.0/">
	<!ENTITY ns_custom "http://ns.adobe.com/GenericCustomNamespace/1.0/">
	<!ENTITY ns_adobe_xpath "http://ns.adobe.com/XPath/1.0/">
]>
<svg version="1.1" id="Layer_1" xmlns:x="&ns_extend;" xmlns:i="&ns_ai;" xmlns:graph="&ns_graphs;"
	 xmlns="http://www.w3.org/2000/svg" xmlns:xlink="http://www.w3.org/1999/xlink" x="0px" y="0px" width="285px" height="285px"
	 viewBox="0 0 285 285" enable-background="new 0 0 285 285" xml:space="preserve">
<metadata>
	<sfw  xmlns="&ns_sfw;">
		<slices></slices>
		<sliceSourceBounds  x="-7165" y="653.423" width="8199.802" height="8149.577" bottomLeftOrigin="true"></sliceSourceBounds>
	</sfw>
</metadata>
<path fill="#231F20" d="M271.059,141.421c0,70.829-57.42,128.25-128.25,128.25c-70.829,0-128.25-57.421-128.25-128.25
	c0-70.83,57.421-128.25,128.25-128.25C213.639,13.171,271.059,70.591,271.059,141.421"/>
<g>
	<g>
		<g>
			<defs>
				<circle id="SVGID_1_" cx="142.5" cy="139.534" r="135"/>
			</defs>
			<clipPath id="SVGID_2_">
				<use xlink:href="#SVGID_1_"  overflow="visible"/>
			</clipPath>
			<g clip-path="url(#SVGID_2_)">
				<rect x="-41.275" y="-1.499" fill="none" width="355.077" height="355.076"/>
			</g>
		</g>
	</g>
</g>
<path fill="#DEDFE0" d="M142.5,279.033c-76.094,0-138-61.905-138-137.998C4.5,64.94,66.406,3.033,142.5,3.033
	s138,61.907,138,138.002C280.5,217.128,218.594,279.033,142.5,279.033z M142.5,14.647c-69.689,0-126.386,56.697-126.386,126.388
	c0,69.688,56.696,126.384,126.386,126.384c69.689,0,126.387-56.694,126.387-126.384C268.887,71.345,212.189,14.647,142.5,14.647z"/>
</svg>
