<?xml version="1.0" encoding="utf-8"?>
<!-- Generator: Adobe Illustrator 15.0.0, SVG Export Plug-In . SVG Version: 6.00 Build 0)  -->
<!DOCTYPE svg PUBLIC "-//W3C//DTD SVG 1.1//EN" "http://www.w3.org/Graphics/SVG/1.1/DTD/svg11.dtd" [
	<!ENTITY ns_extend "http://ns.adobe.com/Extensibility/1.0/">
	<!ENTITY ns_ai "http://ns.adobe.com/AdobeIllustrator/10.0/">
	<!ENTITY ns_graphs "http://ns.adobe.com/Graphs/1.0/">
	<!ENTITY ns_vars "http://ns.adobe.com/Variables/1.0/">
	<!ENTITY ns_imrep "http://ns.adobe.com/ImageReplacement/1.0/">
	<!ENTITY ns_sfw "http://ns.adobe.com/SaveForWeb/1.0/">
	<!ENTITY ns_custom "http://ns.adobe.com/GenericCustomNamespace/1.0/">
	<!ENTITY ns_adobe_xpath "http://ns.adobe.com/XPath/1.0/">
]>
<svg version="1.1" id="Layer_1" xmlns:x="&ns_extend;" xmlns:i="&ns_ai;" xmlns:graph="&ns_graphs;"
	 xmlns="http://www.w3.org/2000/svg" xmlns:xlink="http://www.w3.org/1999/xlink" x="0px" y="0px" width="48px" height="48px"
	 viewBox="0 0 48 48" enable-background="new 0 0 48 48" xml:space="preserve">
<metadata>
	<sfw  xmlns="&ns_sfw;">
		<slices></slices>
		<sliceSourceBounds  height="33.861" width="38.087" y="847.633" x="843.663" bottomLeftOrigin="true"></sliceSourceBounds>
	</sfw>
</metadata>
<g>
	<path fill="#FFFFFF" d="M25.158,40.368c-2.771,0-4.681-1.119-5.676-3.327c-0.374-0.804-0.565-1.798-0.565-2.951
		c0-1.142,0.25-2.36,0.742-3.624c0.482-1.234,1.106-2.479,1.854-3.696c0.746-1.216,1.591-2.404,2.511-3.533s1.846-2.143,2.75-3.015
		c2.119-2.012,3.61-2.948,4.696-2.948c0.5,0,1.043,0.201,1.615,0.599c0.709,0.494,0.931,0.725,1.036,0.854l0.271,0.338l-0.296,0.316
		c-2.435,2.612-3.991,5.158-4.63,7.565c-0.204,0.722-0.307,1.424-0.307,2.097c0,0.593,0.223,1.113,0.682,1.594
		c0.453,0.473,1.001,0.703,1.678,0.703c0.737,0,1.437-0.142,2.074-0.419c0.666-0.29,1.332-0.679,1.979-1.15
		c1.283-0.967,2.433-2.196,3.408-3.651l0.138-0.204l0.245-0.018c0.062-0.004,0.125-0.006,0.185-0.006
		c0.919,0,1.468,0.532,1.468,1.425c0,0.651-0.35,1.553-1.101,2.836c-0.694,1.189-1.397,2.233-2.09,3.104
		c-0.692,0.869-1.49,1.733-2.371,2.573c-0.886,0.844-1.868,1.607-2.925,2.271C30.159,39.606,27.678,40.368,25.158,40.368z
		 M36.32,15.442c-0.486,0-0.936-0.074-1.332-0.222c-0.398-0.147-0.762-0.363-1.076-0.642c-0.698-0.619-1.053-1.377-1.053-2.254
		c0-0.796,0.121-1.486,0.362-2.053c0.239-0.57,0.597-1.067,1.058-1.476c0.959-0.854,2.127-1.289,3.467-1.289
		c1.361,0,2.383,0.364,3.037,1.081c0.642,0.702,0.967,1.523,0.967,2.438c0,0.899-0.208,1.627-0.617,2.16
		c-0.383,0.497-0.855,0.919-1.406,1.254c-0.543,0.329-1.135,0.581-1.759,0.749C37.347,15.357,36.793,15.442,36.32,15.442z"/>
	<path fill="#BA3D2C" d="M37.746,8.007c1.22,0,2.109,0.306,2.667,0.918c0.559,0.611,0.837,1.312,0.837,2.102
		c0,0.791-0.171,1.409-0.514,1.856c-0.344,0.447-0.767,0.824-1.271,1.131c-0.502,0.305-1.045,0.536-1.628,0.692
		c-0.583,0.157-1.088,0.235-1.518,0.235c-0.428,0-0.815-0.063-1.158-0.19c-0.344-0.127-0.649-0.31-0.919-0.548
		c-0.591-0.522-0.884-1.147-0.884-1.879c0-0.73,0.106-1.35,0.322-1.856c0.213-0.507,0.523-0.939,0.928-1.297
		C35.48,8.396,36.525,8.007,37.746,8.007 M31.471,17.774c0.397,0,0.842,0.17,1.33,0.51c0.488,0.34,0.799,0.593,0.932,0.758
		c-2.502,2.685-4.084,5.277-4.746,7.778c-0.217,0.763-0.323,1.503-0.323,2.225c0,0.721,0.272,1.367,0.819,1.938
		s1.227,0.857,2.039,0.857c0.812,0,1.568-0.152,2.273-0.46c0.703-0.308,1.396-0.709,2.075-1.206c1.342-1.01,2.518-2.271,3.528-3.777
		c0.052-0.003,0.103-0.005,0.15-0.005c0.645,0,0.969,0.309,0.969,0.925c0,0.547-0.346,1.408-1.033,2.584
		c-0.688,1.178-1.371,2.191-2.049,3.045c-0.681,0.854-1.455,1.694-2.324,2.522c-0.869,0.829-1.818,1.565-2.846,2.212
		c-2.304,1.458-4.673,2.188-7.107,2.188c-2.568,0-4.309-1.011-5.22-3.032c-0.348-0.746-0.521-1.661-0.521-2.746
		s0.236-2.232,0.708-3.442c0.473-1.209,1.077-2.415,1.814-3.616c0.737-1.2,1.562-2.36,2.473-3.479
		c0.91-1.118,1.813-2.108,2.709-2.97C29.093,18.71,30.543,17.774,31.471,17.774 M37.746,7.007c-1.467,0-2.745,0.477-3.801,1.417
		c-0.516,0.455-0.916,1.014-1.186,1.656c-0.266,0.624-0.4,1.381-0.4,2.244c0,1.012,0.422,1.92,1.221,2.627
		c0.361,0.321,0.777,0.568,1.234,0.738c0.453,0.167,0.959,0.252,1.506,0.252c0.522,0,1.104-0.088,1.777-0.27
		c0.67-0.18,1.305-0.45,1.887-0.804c0.604-0.368,1.123-0.83,1.543-1.375c0.479-0.626,0.723-1.454,0.723-2.467
		c0-1.044-0.37-1.979-1.1-2.776C40.4,7.426,39.254,7.007,37.746,7.007L37.746,7.007z M31.471,16.774
		c-1.222,0-2.822,0.979-5.038,3.084c-0.925,0.89-1.863,1.919-2.796,3.062c-0.934,1.146-1.792,2.354-2.55,3.588
		c-0.763,1.244-1.4,2.514-1.894,3.774c-0.515,1.322-0.776,2.604-0.776,3.808c0,1.228,0.207,2.293,0.615,3.168
		c0.739,1.642,2.407,3.61,6.126,3.61c2.615,0,5.188-0.788,7.643-2.344c1.081-0.68,2.092-1.466,3.001-2.332
		c0.896-0.854,1.71-1.736,2.416-2.623c0.707-0.891,1.425-1.955,2.132-3.164c0.797-1.363,1.168-2.346,1.168-3.089
		c0-1.169-0.771-1.925-1.968-1.925c-0.069,0-0.143,0.002-0.218,0.007l-0.49,0.033l-0.273,0.408
		c-0.944,1.409-2.056,2.599-3.299,3.535c-0.606,0.442-1.24,0.812-1.873,1.089c-0.574,0.249-1.205,0.376-1.875,0.376
		c-0.539,0-0.957-0.175-1.315-0.549c-0.37-0.389-0.543-0.784-0.543-1.248c0-0.626,0.096-1.282,0.284-1.951
		c0.621-2.345,2.14-4.818,4.518-7.37l0.592-0.634l-0.544-0.675c-0.136-0.168-0.387-0.428-1.14-0.951
		C32.714,17.005,32.074,16.774,31.471,16.774L31.471,16.774z"/>
</g>
<polygon fill="#FFFFFF" points="14.043,33.912 7.014,23.941 14.043,13.965 11.192,13.965 4.163,23.941 11.192,33.912 "/>
</svg>
