<?xml version="1.0" encoding="utf-8"?>
<!-- Generator: Adobe Illustrator 15.0.0, SVG Export Plug-In . SVG Version: 6.00 Build 0)  -->
<!DOCTYPE svg PUBLIC "-//W3C//DTD SVG 1.1//EN" "http://www.w3.org/Graphics/SVG/1.1/DTD/svg11.dtd" [
	<!ENTITY ns_extend "http://ns.adobe.com/Extensibility/1.0/">
	<!ENTITY ns_ai "http://ns.adobe.com/AdobeIllustrator/10.0/">
	<!ENTITY ns_graphs "http://ns.adobe.com/Graphs/1.0/">
	<!ENTITY ns_vars "http://ns.adobe.com/Variables/1.0/">
	<!ENTITY ns_imrep "http://ns.adobe.com/ImageReplacement/1.0/">
	<!ENTITY ns_sfw "http://ns.adobe.com/SaveForWeb/1.0/">
	<!ENTITY ns_custom "http://ns.adobe.com/GenericCustomNamespace/1.0/">
	<!ENTITY ns_adobe_xpath "http://ns.adobe.com/XPath/1.0/">
]>
<svg version="1.1" id="Layer_1" xmlns:x="&ns_extend;" xmlns:i="&ns_ai;" xmlns:graph="&ns_graphs;"
	 xmlns="http://www.w3.org/2000/svg" xmlns:xlink="http://www.w3.org/1999/xlink" x="0px" y="0px" width="23px" height="24px"
	 viewBox="0 0 23 24" enable-background="new 0 0 23 24" xml:space="preserve">
<metadata>
	<sfw  xmlns="&ns_sfw;">
		<slices></slices>
		<sliceSourceBounds  x="852.5" y="854.438" width="22" height="20.125" bottomLeftOrigin="true"></sliceSourceBounds>
	</sfw>
</metadata>
<path fill="#FFFFFF" d="M22.326,10.15c-0.044-0.243-0.098-0.483-0.161-0.726c-0.335-1.263-0.899-2.432-1.681-3.473
	c-0.811-1.079-1.816-1.972-2.99-2.653c-1.172-0.684-2.446-1.115-3.786-1.286c-1.282-0.164-2.6-0.054-3.838,0.254
	C8.597,2.604,7.429,3.169,6.39,3.954c-0.897,0.671-1.672,1.529-2.3,2.463L0.5,4.495l0.964,9.747l8.638-4.601L6.608,7.769
	c0.408-0.549,0.92-1.099,1.463-1.507c0.732-0.549,1.583-0.965,2.468-1.198c0.938-0.229,1.869-0.3,2.763-0.187
	c0.951,0.122,1.859,0.43,2.699,0.918c0.838,0.488,1.556,1.125,2.133,1.895c0.558,0.741,0.962,1.57,1.199,2.472
	c0.048,0.178,0.087,0.354,0.119,0.526c0.14,0.741,0.161,1.493,0.067,2.229c-0.123,0.953-0.43,1.86-0.918,2.7
	c-0.49,0.842-1.127,1.561-1.895,2.135c-0.74,0.555-1.576,0.961-2.484,1.201c-0.168,0.047-0.342,0.084-0.521,0.118
	c-0.729,0.138-1.481,0.159-2.224,0.064c-0.953-0.123-1.86-0.433-2.702-0.918l-1.398,2.48c1.178,0.683,2.449,1.113,3.788,1.283
	c1.032,0.134,2.08,0.103,3.109-0.09l0.048-0.011c0.229-0.041,0.462-0.096,0.688-0.155c1.261-0.335,2.429-0.9,3.474-1.683
	c1.078-0.812,1.972-1.815,2.652-2.988c0.682-1.176,1.113-2.446,1.283-3.785C22.552,12.233,22.521,11.182,22.326,10.15z"/>
</svg>
