<?xml version="1.0" encoding="utf-8"?>
<!-- Generator: Adobe Illustrator 15.0.0, SVG Export Plug-In . SVG Version: 6.00 Build 0)  -->
<!DOCTYPE svg PUBLIC "-//W3C//DTD SVG 1.1//EN" "http://www.w3.org/Graphics/SVG/1.1/DTD/svg11.dtd" [
	<!ENTITY ns_extend "http://ns.adobe.com/Extensibility/1.0/">
	<!ENTITY ns_ai "http://ns.adobe.com/AdobeIllustrator/10.0/">
	<!ENTITY ns_graphs "http://ns.adobe.com/Graphs/1.0/">
	<!ENTITY ns_vars "http://ns.adobe.com/Variables/1.0/">
	<!ENTITY ns_imrep "http://ns.adobe.com/ImageReplacement/1.0/">
	<!ENTITY ns_sfw "http://ns.adobe.com/SaveForWeb/1.0/">
	<!ENTITY ns_custom "http://ns.adobe.com/GenericCustomNamespace/1.0/">
	<!ENTITY ns_adobe_xpath "http://ns.adobe.com/XPath/1.0/">
]>
<svg version="1.1" id="Layer_1" xmlns:x="&ns_extend;" xmlns:i="&ns_ai;" xmlns:graph="&ns_graphs;"
	 xmlns="http://www.w3.org/2000/svg" xmlns:xlink="http://www.w3.org/1999/xlink" x="0px" y="0px" width="285px" height="285px"
	 viewBox="0 0 285 285" enable-background="new 0 0 285 285" xml:space="preserve">
<metadata>
	<sfw  xmlns="&ns_sfw;">
		<slices></slices>
		<sliceSourceBounds  x="-7165" y="727.469" width="8167.005" height="8075.531" bottomLeftOrigin="true"></sliceSourceBounds>
	</sfw>
</metadata>
<circle fill="#E61C24" cx="143.501" cy="141.531" r="128"/>
<g>
	<g>
		<g>
			<g>
				<g>
					<defs>
						<path id="SVGID_1_" d="M143.809,14.172c-70.829,0-128.25,57.42-128.25,128.25c0,70.829,57.421,128.25,128.25,128.25
							c70.83,0,128.252-57.421,128.252-128.25C272.059,71.592,214.639,14.172,143.809,14.172"/>
					</defs>
					<clipPath id="SVGID_2_">
						<use xlink:href="#SVGID_1_"  overflow="visible"/>
					</clipPath>
					<g transform="matrix(1 0 0 1 -9.536743e-07 0)" clip-path="url(#SVGID_2_)">
					</g>
				</g>
			</g>
		</g>
		<path fill="#DEDFE0" d="M143.005,279.531c-76.094,0-138-61.905-138-137.998c0-76.095,61.906-138.002,138-138.002
			c76.095,0,138,61.907,138,138.002C281.005,217.626,219.1,279.531,143.005,279.531z M143.005,15.145
			c-69.689,0-126.386,56.697-126.386,126.388c0,69.688,56.696,126.384,126.386,126.384c69.688,0,126.388-56.695,126.388-126.384
			C269.393,71.843,212.693,15.145,143.005,15.145z"/>
	</g>
</g>
</svg>
