<?xml version="1.0" encoding="utf-8"?>
<!-- Generator: Adobe Illustrator 15.0.0, SVG Export Plug-In  -->
<!DOCTYPE svg PUBLIC "-//W3C//DTD SVG 1.1//EN" "http://www.w3.org/Graphics/SVG/1.1/DTD/svg11.dtd" [
	<!ENTITY ns_flows "http://ns.adobe.com/Flows/1.0/">
]>
<svg version="1.1"
	 xmlns="http://www.w3.org/2000/svg" xmlns:xlink="http://www.w3.org/1999/xlink" xmlns:a="http://ns.adobe.com/AdobeSVGViewerExtensions/3.0/"
	 x="0px" y="0px" width="48px" height="48px" viewBox="-2.082 -2.541 48 48"
	 overflow="visible" enable-background="new -2.082 -2.541 48 48" xml:space="preserve">
<defs>
</defs>
<circle fill="#E3E4E4" cx="21.468" cy="21.468" r="21.468"/>
<g>
	<path fill="#FFFFFF" d="M11.727,33.067c-0.313-0.671-0.47-1.495-0.47-2.472s0.213-2.009,0.638-3.098
		c0.425-1.088,0.969-2.174,1.633-3.255c0.663-1.081,1.405-2.125,2.226-3.132c0.819-1.006,1.633-1.897,2.438-2.672
		c1.774-1.686,3.08-2.528,3.915-2.528c0.357,0,0.757,0.153,1.197,0.459c0.439,0.306,0.719,0.533,0.838,0.682
		c-2.252,2.416-3.677,4.75-4.272,7.002c-0.194,0.686-0.291,1.353-0.291,2.001s0.246,1.23,0.738,1.745s1.104,0.772,1.835,0.772
		c0.73,0,1.412-0.139,2.047-0.414c0.633-0.276,1.256-0.639,1.867-1.086c1.208-0.908,2.266-2.042,3.176-3.399
		c0.672-0.045,1.007,0.231,1.007,0.828c0,0.492-0.31,1.268-0.929,2.325c-0.619,1.06-1.234,1.973-1.845,2.74
		c-0.611,0.769-1.309,1.525-2.092,2.271c-0.782,0.746-1.637,1.409-2.562,1.991c-2.072,1.312-4.204,1.969-6.396,1.969
		C14.112,35.797,12.546,34.887,11.727,33.067z M29.301,12.527c-0.452,0.274-0.94,0.482-1.465,0.623
		c-0.525,0.142-0.979,0.212-1.365,0.212s-0.734-0.057-1.043-0.171c-0.31-0.114-0.585-0.279-0.827-0.493
		c-0.531-0.471-0.796-1.033-0.796-1.691c0-0.657,0.097-1.215,0.291-1.671c0.191-0.456,0.472-0.846,0.835-1.167
		c0.783-0.698,1.725-1.048,2.822-1.048s1.898,0.275,2.4,0.826c0.503,0.551,0.753,1.181,0.753,1.892c0,0.712-0.153,1.269-0.462,1.671
		C30.134,11.912,29.754,12.252,29.301,12.527z"/>
</g>
</svg>
