<?xml version="1.0" encoding="utf-8"?>
<!-- Generator: Adobe Illustrator 15.0.0, SVG Export Plug-In . SVG Version: 6.00 Build 0)  -->
<!DOCTYPE svg PUBLIC "-//W3C//DTD SVG 1.1//EN" "http://www.w3.org/Graphics/SVG/1.1/DTD/svg11.dtd" [
	<!ENTITY ns_extend "http://ns.adobe.com/Extensibility/1.0/">
	<!ENTITY ns_ai "http://ns.adobe.com/AdobeIllustrator/10.0/">
	<!ENTITY ns_graphs "http://ns.adobe.com/Graphs/1.0/">
	<!ENTITY ns_vars "http://ns.adobe.com/Variables/1.0/">
	<!ENTITY ns_imrep "http://ns.adobe.com/ImageReplacement/1.0/">
	<!ENTITY ns_sfw "http://ns.adobe.com/SaveForWeb/1.0/">
	<!ENTITY ns_custom "http://ns.adobe.com/GenericCustomNamespace/1.0/">
	<!ENTITY ns_adobe_xpath "http://ns.adobe.com/XPath/1.0/">
]>
<svg version="1.1" id="Layer_1" xmlns:x="&ns_extend;" xmlns:i="&ns_ai;" xmlns:graph="&ns_graphs;"
	 xmlns="http://www.w3.org/2000/svg" xmlns:xlink="http://www.w3.org/1999/xlink" x="0px" y="0px" width="72px" height="72px"
	 viewBox="0 0 72 72" enable-background="new 0 0 72 72" xml:space="preserve">
<metadata>
	<sfw  xmlns="&ns_sfw;">
		<slices></slices>
		<sliceSourceBounds  height="66.473" width="65.994" y="831.264" x="830.502" bottomLeftOrigin="true"></sliceSourceBounds>
	</sfw>
</metadata>
<path fill="#383838" d="M62.76,2.764H9.243c-3.44,0-6.24,2.519-6.24,5.613v55.244c0,1.078,0.356,2.076,0.942,2.93v0.006h0.006
	c1.102,1.604,3.053,2.68,5.292,2.68H62.76c3.438,0,6.237-2.52,6.237-5.615V8.377C68.997,5.283,66.198,2.764,62.76,2.764z
	 M66.19,63.621c0,1.521-1.568,2.809-3.431,2.809h4.791c0.038-6.684,0.097-10.443-7.304-12.154
	c-7.911-1.826-19.277-3.42-15.707-10.143c10.848-20.462,2.871-31.406-8.588-31.406c-11.686,0-19.467,11.361-8.581,31.406
	c3.673,6.762-8.383,8.357-16.121,10.143c-2.674,0.619-4.361,1.51-5.44,2.701v-48.6c0-1.522,1.573-2.807,3.434-2.807h53.517
	c1.861,0,3.432,1.284,3.432,2.807v55.244H66.19z"/>
</svg>
