<?xml version="1.0" encoding="utf-8"?>
<!-- Generator: Adobe Illustrator 15.0.0, SVG Export Plug-In . SVG Version: 6.00 Build 0)  -->
<!DOCTYPE svg PUBLIC "-//W3C//DTD SVG 1.1//EN" "http://www.w3.org/Graphics/SVG/1.1/DTD/svg11.dtd" [
	<!ENTITY ns_extend "http://ns.adobe.com/Extensibility/1.0/">
	<!ENTITY ns_ai "http://ns.adobe.com/AdobeIllustrator/10.0/">
	<!ENTITY ns_graphs "http://ns.adobe.com/Graphs/1.0/">
	<!ENTITY ns_vars "http://ns.adobe.com/Variables/1.0/">
	<!ENTITY ns_imrep "http://ns.adobe.com/ImageReplacement/1.0/">
	<!ENTITY ns_sfw "http://ns.adobe.com/SaveForWeb/1.0/">
	<!ENTITY ns_custom "http://ns.adobe.com/GenericCustomNamespace/1.0/">
	<!ENTITY ns_adobe_xpath "http://ns.adobe.com/XPath/1.0/">
]>
<svg version="1.1" id="Layer_1" xmlns:x="&ns_extend;" xmlns:i="&ns_ai;" xmlns:graph="&ns_graphs;"
	 xmlns="http://www.w3.org/2000/svg" xmlns:xlink="http://www.w3.org/1999/xlink" x="0px" y="0px" width="48px" height="48px"
	 viewBox="0 0 48 48" enable-background="new 0 0 48 48" xml:space="preserve">
<metadata>
	<sfw  xmlns="&ns_sfw;">
		<slices></slices>
		<sliceSourceBounds  height="46.68" width="34.173" y="841.82" x="846.506" bottomLeftOrigin="true"></sliceSourceBounds>
	</sfw>
</metadata>
<path fill="#BA3D2C" d="M17.638,44.943c-4.898,0-7.105-2.613-8.092-4.805c-0.53-1.138-0.804-2.537-0.804-4.138
	c0-1.562,0.337-3.221,1.001-4.924c0.628-1.604,1.435-3.215,2.4-4.789c0.956-1.556,2.039-3.079,3.218-4.527
	c1.178-1.443,2.362-2.742,3.521-3.858c2.907-2.76,4.948-3.987,6.628-3.987c0.854,0,1.745,0.318,2.648,0.945
	c0.783,0.547,1.238,0.93,1.522,1.283l0.943,1.17l-1.025,1.101c-2.91,3.123-4.764,6.14-5.512,8.964
	c-0.232,0.818-0.346,1.592-0.346,2.33c0,0.451,0.168,0.827,0.541,1.218c0.354,0.37,0.75,0.534,1.289,0.534
	c0.777,0,1.479-0.141,2.146-0.43c0.756-0.33,1.516-0.773,2.255-1.312c1.489-1.119,2.837-2.563,3.984-4.277l0.475-0.707l0.851-0.059
	c0.105-0.006,0.207-0.01,0.306-0.01c1.76,0,2.942,1.162,2.942,2.891c0,1.029-0.472,2.293-1.523,4.098
	c-0.896,1.529-1.803,2.876-2.698,4.003c-0.895,1.122-1.924,2.241-3.06,3.321c-1.156,1.103-2.441,2.103-3.821,2.97
	C24.29,43.936,20.995,44.943,17.638,44.943z M31.562,13.854c-0.741,0-1.432-0.116-2.05-0.347c-0.625-0.23-1.196-0.57-1.691-1.01
	c-1.104-0.979-1.688-2.236-1.688-3.644c0-1.142,0.183-2.152,0.541-2.995c0.36-0.858,0.9-1.614,1.604-2.237
	c1.403-1.251,3.107-1.886,5.062-1.886c2.023,0,3.574,0.575,4.609,1.712c0.99,1.086,1.494,2.361,1.494,3.789
	c0,1.373-0.334,2.506-0.998,3.371c-0.562,0.73-1.254,1.348-2.061,1.836c-0.768,0.467-1.604,0.823-2.484,1.059
	C33.021,13.738,32.255,13.854,31.562,13.854z"/>
<path fill="#FFFFFF" d="M33.338,3.471c1.521,0,2.631,0.382,3.326,1.146c0.696,0.763,1.044,1.635,1.044,2.621
	c0,0.986-0.215,1.758-0.643,2.314c-0.429,0.558-0.955,1.028-1.584,1.41c-0.625,0.38-1.304,0.669-2.031,0.865
	c-0.727,0.194-1.355,0.292-1.891,0.292s-1.018-0.08-1.445-0.236c-0.431-0.159-0.811-0.389-1.146-0.684
	c-0.736-0.652-1.104-1.433-1.104-2.345c0-0.91,0.133-1.683,0.402-2.314c0.265-0.632,0.653-1.172,1.157-1.618
	C30.512,3.956,31.817,3.471,33.338,3.471 M25.511,15.65c0.496,0,1.049,0.213,1.659,0.637c0.607,0.424,0.996,0.74,1.162,0.947
	c-3.121,3.346-5.095,6.579-5.921,9.7c-0.27,0.95-0.403,1.875-0.403,2.774c0,0.897,0.341,1.704,1.022,2.418
	c0.682,0.712,1.529,1.07,2.542,1.07c1.013,0,1.957-0.191,2.836-0.574c0.877-0.383,1.741-0.886,2.589-1.505
	c1.674-1.26,3.14-2.829,4.4-4.71c0.065-0.005,0.129-0.009,0.188-0.009c0.805,0,1.206,0.387,1.206,1.156
	c0,0.68-0.43,1.756-1.286,3.221c-0.856,1.469-1.711,2.734-2.558,3.8c-0.848,1.062-1.812,2.112-2.897,3.145
	c-1.084,1.035-2.269,1.952-3.55,2.759c-2.872,1.819-5.826,2.729-8.864,2.729c-3.203,0-5.373-1.261-6.51-3.78
	c-0.434-0.932-0.65-2.071-0.65-3.426s0.295-2.785,0.882-4.293c0.591-1.508,1.345-3.015,2.264-4.512
	c0.921-1.498,1.948-2.943,3.084-4.339c1.137-1.396,2.263-2.63,3.379-3.704C22.545,16.819,24.355,15.65,25.511,15.65 M33.338,0
	c-2.357,0-4.507,0.807-6.222,2.33c-0.886,0.783-1.574,1.746-2.042,2.855c-0.45,1.058-0.679,2.293-0.679,3.669
	c0,1.208,0.313,2.333,0.916,3.331c-2.131,0.077-4.426,1.423-7.616,4.452l-0.009,0.008l-0.008,0.009
	c-1.208,1.165-2.441,2.514-3.662,4.01c-1.229,1.509-2.354,3.096-3.352,4.717c-1.019,1.664-1.873,3.365-2.537,5.062
	c-0.744,1.91-1.12,3.779-1.12,5.559c0,1.846,0.324,3.484,0.966,4.869c1.696,3.744,5.129,5.809,9.665,5.809
	c3.69,0,7.299-1.101,10.722-3.267c1.47-0.926,2.848-1.997,4.089-3.181c1.189-1.133,2.273-2.31,3.219-3.496
	c0.945-1.191,1.9-2.607,2.837-4.207c1.218-2.086,1.762-3.619,1.762-4.973c0-2.683-1.967-4.625-4.678-4.625
	c-0.138,0-0.279,0.004-0.42,0.014l-1.701,0.113l-0.95,1.416c-1.035,1.543-2.241,2.842-3.585,3.857
	c-0.632,0.459-1.273,0.832-1.909,1.11c-0.438,0.189-0.912,0.283-1.448,0.283c-0.015,0-0.026,0-0.036-0.002
	c-0.026-0.027-0.046-0.049-0.059-0.065c0.006-0.562,0.097-1.159,0.271-1.775l0.009-0.03l0.008-0.031
	c0.674-2.543,2.391-5.312,5.104-8.223l2.051-2.199l-1.456-1.81c0.03,0.001,0.063,0.001,0.097,0.001c0.85,0,1.762-0.136,2.793-0.413
	c1.034-0.276,2.021-0.698,2.93-1.247c0.99-0.604,1.842-1.363,2.533-2.261c0.904-1.181,1.36-2.669,1.36-4.433
	c0-1.848-0.675-3.563-1.95-4.963C37.854,0.768,35.87,0,33.338,0L33.338,0z"/>
</svg>
